<svg width="62" height="62" viewBox="0 0 62 62" fill="none" xmlns="http://www.w3.org/2000/svg">
<circle cx="31" cy="31" r="31" fill="#A7EEFF"/>
<path d="M41.6377 19.2269H20.9802C19.8866 19.2269 19 20.1101 19 21.1997V44.027C19 45.1166 19.8866 46 20.9802 46H41.6377C42.7313 46 43.6176 45.1166 43.6176 44.027V21.1997C43.6176 20.1101 42.7313 19.2269 41.6377 19.2269Z" fill="#49C3E0"/>
<path d="M22.8063 19.2269V21.5067C22.8063 23.1298 24.1316 24.4505 25.7607 24.4505H36.857C38.4861 24.4505 39.8116 23.1298 39.8116 21.5067V19.2269H22.8063Z" fill="#00A5C6"/>
<path d="M21.491 21.3383H41.1266V42.8613H21.491V21.3383Z" fill="#EFEDEE"/>
<path d="M25.0915 28.3678C24.9707 28.3678 24.8487 28.3418 24.7328 28.2889C24.4261 28.1484 24.2355 27.852 24.2355 27.5155V26.7227C24.2355 26.4644 24.4456 26.2549 24.7051 26.2549C24.9645 26.2549 25.1746 26.4644 25.1746 26.7227V27.3331C25.792 26.8296 26.7695 26.1825 28.1092 25.7374C28.3552 25.6558 28.621 25.7882 28.7032 26.0335C28.7851 26.2785 28.6521 26.5434 28.4062 26.6252C27.103 27.0578 26.1849 27.6997 25.6441 28.1618C25.4851 28.2976 25.29 28.3678 25.0915 28.3678Z" fill="#3AC7B4"/>
<path d="M37.9128 27.5081H31.7684C31.5091 27.5081 31.2988 27.2988 31.2988 27.0403C31.2988 26.782 31.5091 26.5725 31.7684 26.5725H37.9128C38.172 26.5725 38.3823 26.782 38.3823 27.0403C38.3823 27.2988 38.172 27.5081 37.9128 27.5081Z" fill="#3A484A"/>
<path d="M25.0915 32.209C24.9707 32.209 24.8487 32.183 24.7328 32.1298C24.4261 31.9893 24.2355 31.6932 24.2355 31.3566V30.5639C24.2355 30.3053 24.4456 30.096 24.7051 30.096C24.9645 30.096 25.1746 30.3053 25.1746 30.5639V31.1743C25.792 30.6708 26.7695 30.0237 28.1092 29.5785C28.3552 29.4967 28.621 29.6294 28.7032 29.8744C28.7851 30.1195 28.6521 30.3846 28.4062 30.4662C27.103 30.899 26.1849 31.5409 25.6441 32.0028C25.4851 32.1388 25.29 32.209 25.0915 32.209Z" fill="#3AC7B4"/>
<path d="M37.9128 31.3493H31.7684C31.5091 31.3493 31.2988 31.1398 31.2988 30.8815C31.2988 30.6232 31.5091 30.4137 31.7684 30.4137H37.9128C38.172 30.4137 38.3823 30.6232 38.3823 30.8815C38.3823 31.1398 38.172 31.3493 37.9128 31.3493Z" fill="#3A484A"/>
<path d="M25.0915 36.0502C24.9707 36.0502 24.8487 36.0242 24.7328 35.971C24.4261 35.8305 24.2355 35.5341 24.2355 35.1978V34.4048C24.2355 34.1465 24.4456 33.937 24.7051 33.937C24.9645 33.937 25.1746 34.1465 25.1746 34.4048V35.0155C25.792 34.5119 26.7695 33.8646 28.1092 33.4197C28.3552 33.3379 28.621 33.4703 28.7032 33.7156C28.7851 33.9606 28.6521 34.2255 28.4062 34.3074C27.103 34.7402 26.1849 35.3818 25.6441 35.844C25.4851 35.98 25.29 36.0502 25.0915 36.0502Z" fill="#3AC7B4"/>
<path d="M37.9128 35.1905H31.7684C31.5091 35.1905 31.2988 34.9809 31.2988 34.7227C31.2988 34.4642 31.5091 34.2549 31.7684 34.2549H37.9128C38.172 34.2549 38.3823 34.4642 38.3823 34.7227C38.3823 34.9809 38.172 35.1905 37.9128 35.1905Z" fill="#3A484A"/>
<path d="M25.0915 39.8912C24.9707 39.8912 24.8487 39.8651 24.7328 39.8119C24.4261 39.6717 24.2355 39.3753 24.2355 39.0388V38.246C24.2355 37.9877 24.4456 37.7782 24.7051 37.7782C24.9645 37.7782 25.1746 37.9877 25.1746 38.246V38.8564C25.792 38.3529 26.7695 37.7058 28.1092 37.2607C28.3552 37.1791 28.621 37.3115 28.7032 37.5566C28.7851 37.8018 28.6521 38.0667 28.4062 38.1483C27.103 38.5811 26.1849 39.223 25.6441 39.6852C25.4851 39.8209 25.29 39.8912 25.0915 39.8912Z" fill="#3AC7B4"/>
<path d="M37.9128 39.0314H31.7684C31.5091 39.0314 31.2988 38.8221 31.2988 38.5636C31.2988 38.3053 31.5091 38.0958 31.7684 38.0958H37.9128C38.172 38.0958 38.3823 38.3053 38.3823 38.5636C38.3823 38.8221 38.172 39.0314 37.9128 39.0314Z" fill="#3A484A"/>
<path d="M22.8063 21.3383V21.5067C22.8063 23.1298 24.1316 24.4505 25.7607 24.4505H36.857C38.4861 24.4505 39.8116 23.1298 39.8116 21.5067V21.3383H22.8063Z" fill="#D4D2D3"/>
<path d="M36.8569 17.6236H33.791C33.7939 17.5751 33.7958 17.5266 33.7958 17.4777C33.7958 16.1092 32.6822 15 31.3088 15C29.9353 15 28.8221 16.1092 28.8221 17.4779C28.8221 17.5269 28.8237 17.5754 28.8266 17.6236H25.7606C25.1663 17.6236 24.6841 18.1037 24.6841 18.6962V21.5067C24.6841 22.0989 25.1663 22.5792 25.7606 22.5792H36.8569C37.4513 22.5792 37.9334 22.0989 37.9334 21.5067V18.6962C37.9334 18.1037 37.4516 17.6236 36.8569 17.6236Z" fill="#BAB8B9"/>
<path d="M32.1239 17.4779C32.1239 17.9264 31.7589 18.2899 31.3088 18.2899C30.8587 18.2899 30.4939 17.9264 30.4939 17.4779C30.4939 17.0293 30.8587 16.6657 31.3088 16.6657C31.7589 16.6657 32.1239 17.0293 32.1239 17.4779Z" fill="#D4D2D3"/>
<path d="M27.3523 20.6961C27.0931 20.6961 26.8828 20.4866 26.8828 20.2283V19.5148C26.8828 19.2565 27.0931 19.0469 27.3523 19.0469C27.6117 19.0469 27.8218 19.2565 27.8218 19.5148V20.2283C27.8218 20.4866 27.6117 20.6961 27.3523 20.6961Z" fill="#3A484A"/>
<path d="M35.2654 20.6961C35.0059 20.6961 34.7958 20.4866 34.7958 20.2283V19.5148C34.7958 19.2565 35.0059 19.0469 35.2654 19.0469C35.5248 19.0469 35.7349 19.2565 35.7349 19.5148V20.2283C35.7349 20.4866 35.5248 20.6961 35.2654 20.6961Z" fill="#3A484A"/>
<path d="M31.3088 21.0769C30.7928 21.0769 30.308 20.8617 29.9788 20.4866C29.8081 20.2919 29.8281 19.9965 30.0234 19.8265C30.2186 19.6564 30.5153 19.6763 30.6859 19.8707C30.8367 20.0427 31.0636 20.1413 31.3088 20.1413C31.554 20.1413 31.781 20.0427 31.9317 19.8707C32.1024 19.6763 32.3991 19.6564 32.5942 19.8265C32.7896 19.9965 32.8095 20.2919 32.6388 20.4866C32.3098 20.8617 31.8251 21.0769 31.3088 21.0769Z" fill="#3A484A"/>
</svg>
