<svg width="16" height="21" viewBox="0 0 16 21" fill="none" xmlns="http://www.w3.org/2000/svg">
<path fill-rule="evenodd" clip-rule="evenodd" d="M2.625 0C1.92881 0 1.26113 0.276562 0.768845 0.768845C0.276562 1.26113 0 1.92881 0 2.625V18.375C0 19.0712 0.276562 19.7389 0.768845 20.2312C1.26113 20.7234 1.92881 21 2.625 21H13.125C13.8212 21 14.4889 20.7234 14.9812 20.2312C15.4734 19.7389 15.75 19.0712 15.75 18.375V7.10588C15.7499 6.40974 15.4732 5.74217 14.9809 5.25L10.5 0.769125C10.0078 0.276808 9.34026 0.000148673 8.64413 0H2.625ZM9.1875 7.875C9.1875 7.5269 9.04922 7.19306 8.80308 6.94692C8.55694 6.70078 8.2231 6.5625 7.875 6.5625C7.5269 6.5625 7.19306 6.70078 6.94692 6.94692C6.70078 7.19306 6.5625 7.5269 6.5625 7.875V12.5816L4.86544 10.8846C4.74436 10.7592 4.59954 10.6592 4.43941 10.5904C4.27928 10.5216 4.10705 10.4854 3.93278 10.4839C3.7585 10.4824 3.58567 10.5156 3.42437 10.5816C3.26307 10.6476 3.11653 10.7451 2.99329 10.8683C2.87006 10.9915 2.7726 11.1381 2.70661 11.2994C2.64062 11.4607 2.60741 11.6335 2.60892 11.8078C2.61044 11.982 2.64664 12.1543 2.71543 12.3144C2.78422 12.4745 2.88421 12.6194 3.00956 12.7404L6.94706 16.6779C7.19319 16.924 7.52697 17.0622 7.875 17.0622C8.22303 17.0622 8.55681 16.924 8.80294 16.6779L12.7404 12.7404C12.9795 12.4929 13.1118 12.1614 13.1088 11.8172C13.1058 11.4731 12.9678 11.1439 12.7244 10.9006C12.4811 10.6572 12.1519 10.5192 11.8078 10.5162C11.4636 10.5132 11.1321 10.6455 10.8846 10.8846L9.1875 12.5816V7.875Z" fill="#9E9E9E"/>
</svg>
