<svg width="62" height="62" viewBox="0 0 62 62" fill="none" xmlns="http://www.w3.org/2000/svg">
<circle cx="31" cy="31" r="31" fill="#A3AEFF"/>
<path d="M26.3109 16L19 23.3109V47H42.5673V16H26.3109Z" fill="white"/>
<path d="M30.7836 16H42.5673V47H30.7836V16Z" fill="#E9EDF5"/>
<path d="M26.3109 23.3109V16L19 23.3109H26.3109Z" fill="#E9EDF5"/>
<path d="M22.5184 36.848H39.0488V39.6303H22.5184V36.848Z" fill="#9196AA"/>
<path d="M30.7836 36.848H39.0489V39.6303H30.7836V36.848Z" fill="#707789"/>
<path d="M25.4055 40.8634H36.1618V43.6456H25.4055V40.8634Z" fill="#9196AA"/>
<path d="M30.7836 40.8634H36.1618V43.6456H30.7836V40.8634Z" fill="#707789"/>
<path d="M33.0109 34.6945L32.5663 33.4012H29.0232L28.5786 34.6945H25.9516L29.3331 25.7087H32.243L35.6379 34.6945H33.0109ZM30.7837 27.9989L29.6429 31.3804H31.9332L30.7837 27.9989Z" fill="#7584F2"/>
<path d="M30.7836 27.9989L31.9332 31.3804H30.7836V33.4012H32.5664L33.0109 34.6945H35.638L32.243 25.7087H30.7836V27.9989Z" fill="#606AEA"/>
<path d="M40.3555 22.018H38.4432V20.1057H35.6609V22.018H33.7486V24.8003H35.6609V26.7126H38.4432V24.8003H40.3555V22.018Z" fill="#606AEA"/>
</svg>
