<svg width="20" height="26" viewBox="0 0 20 26" fill="none" xmlns="http://www.w3.org/2000/svg">
<path d="M19.733 6.52031C19.9034 6.69442 20 6.92946 20 7.17612V25.0714C20 25.585 19.5938 26 19.0909 26H0.909091C0.40625 26 0 25.585 0 25.0714V0.928571C0 0.414955 0.40625 0 0.909091 0H12.9744C13.2159 0 13.4489 0.0986608 13.6193 0.272768L19.733 6.52031V6.52031ZM17.9034 7.60268L12.5568 2.14152V7.60268H17.9034ZM4.54545 12.1295C4.48518 12.1295 4.42737 12.1539 4.38475 12.1975C4.34213 12.241 4.31818 12.3 4.31818 12.3616V13.7545C4.31818 13.816 4.34213 13.8751 4.38475 13.9186C4.42737 13.9621 4.48518 13.9866 4.54545 13.9866H15.4545C15.5148 13.9866 15.5726 13.9621 15.6153 13.9186C15.6579 13.8751 15.6818 13.816 15.6818 13.7545V12.3616C15.6818 12.3 15.6579 12.241 15.6153 12.1975C15.5726 12.1539 15.5148 12.1295 15.4545 12.1295H4.54545ZM4.54545 16.0759C4.48518 16.0759 4.42737 16.1004 4.38475 16.1439C4.34213 16.1874 4.31818 16.2465 4.31818 16.308V17.7009C4.31818 17.7625 4.34213 17.8215 4.38475 17.865C4.42737 17.9086 4.48518 17.933 4.54545 17.933H9.77273C9.833 17.933 9.89081 17.9086 9.93343 17.865C9.97606 17.8215 10 17.7625 10 17.7009V16.308C10 16.2465 9.97606 16.1874 9.93343 16.1439C9.89081 16.1004 9.833 16.0759 9.77273 16.0759H4.54545Z" fill="#505050"/>
</svg>
