<svg width="62" height="62" viewBox="0 0 62 62" fill="none" xmlns="http://www.w3.org/2000/svg">
<circle cx="31" cy="31" r="31" fill="#DAB4FF"/>
<path d="M35.4383 12.001H18.8555C17.2784 12.001 16 13.2795 16 14.8565V47.6323C16 49.2094 17.2784 50.4878 18.8555 50.4878H42.4288C44.0059 50.4878 45.2842 49.2093 45.2842 47.6323V21.847L39.817 17.6967L35.4383 12.001Z" fill="#A260E5"/>
<path d="M35.4383 12.0001H30.6549V50.487H42.4289C44.006 50.487 45.2843 49.2085 45.2843 47.6316V21.8461L39.7254 17.7875L35.4383 12.0001Z" fill="#7A3EB5"/>
<path d="M35.4383 18.9906C35.4383 20.5677 36.7167 21.846 38.2938 21.846H45.2843L35.4383 12V18.9906Z" fill="#A260E5"/>
<path d="M24.7784 36.2726H27.5949V39.4366H24.7784V36.2726Z" fill="white"/>
<path d="M29.1909 36.2726H33.655V39.4366H29.1909V36.2726Z" fill="white"/>
<path d="M33.655 36.2726H42.506V39.4366H33.655V36.2726Z" fill="white"/>
<path d="M24.7784 42.2508H27.5949V45.4149H24.7784V42.2508Z" fill="white"/>
<path d="M29.1909 42.2508H33.655V45.4149H29.1909V42.2508Z" fill="white"/>
<path d="M33.655 42.2508H42.506V45.4149H33.655V42.2508Z" fill="white"/>
<path d="M24.7784 30.2943H27.5949V33.4583H24.7784V30.2943Z" fill="white"/>
<path d="M29.1909 30.2943H42.506V33.4583H29.1909V30.2943Z" fill="white"/>
<path d="M33.655 36.2726H42.506V39.4366H33.655V36.2726Z" fill="#E9EDF5"/>
<path d="M33.655 42.2508H42.506V45.4149H33.655V42.2508Z" fill="#E9EDF5"/>
<path d="M33.655 30.2943H42.506V33.4583H33.655V30.2943Z" fill="#E9EDF5"/>
</svg>
