<svg width="62" height="62" viewBox="0 0 62 62" fill="none" xmlns="http://www.w3.org/2000/svg">
<circle cx="31" cy="31" r="31" fill="#A2D8FF"/>
<path d="M16.7404 32.5868H36.7802V48.6479H16.7404V32.5868Z" fill="#BA9A43"/>
<path d="M39.1944 17H22.4848C21.914 17 21.4512 17.4627 21.4512 18.0335V29.3551H40.2279V18.0335C40.2279 17.4627 39.7652 17 39.1944 17Z" fill="#293B44"/>
<path d="M39.1945 18.0335V28.3215H22.4848V18.0335H39.1945Z" fill="#509FD7"/>
<path d="M41.386 29.2724V30.488L40.5855 31.2547H21.0937L20.2932 30.488V29.2724H41.386Z" fill="#ECECEC"/>
<path d="M40.5852 31.2545H21.0939L20.2922 30.4886H41.387L40.5852 31.2545Z" fill="#DAD7DC"/>
<path d="M14.7532 33.1359H17.0492V50.0784H14.7532V33.1359Z" fill="#FFD25A"/>
<path d="M36.4713 32.7774H46.9259V50.0784H36.4713V32.7774Z" fill="#FFD25A"/>
<path d="M13 31.2743H48.6791V33.1359H13V31.2743Z" fill="#D6B251"/>
<path d="M37.3183 33.9829H46.0773V38.2184H37.3183V33.9829Z" fill="#D6B251"/>
<path d="M37.3183 39.4891H46.0773V43.7245H37.3183V39.4891Z" fill="#D6B251"/>
<path d="M37.3183 44.9952H46.0773V49.2307H37.3183V44.9952Z" fill="#D6B251"/>
<path d="M46.2892 38.4302H37.1066V33.7711H46.2892V38.4302ZM37.5301 38.0066H45.8656V34.1947H37.5301V38.0066Z" fill="#D49145"/>
<path d="M46.2892 43.9363H37.1066V39.2773H46.2892V43.9363ZM37.5301 43.5127H45.8656V39.7008H37.5301V43.5127Z" fill="#D49145"/>
<path d="M46.2892 49.4424H37.1066V44.7834H46.2892V49.4424ZM37.5301 49.0189H45.8656V45.207H37.5301V49.0189Z" fill="#D49145"/>
<path d="M42.9435 35.0418H40.4522C40.3523 35.0418 40.2706 35.1235 40.2706 35.2234C40.2706 35.3233 40.3523 35.4051 40.4522 35.4051H42.9435C43.0434 35.4051 43.1252 35.3233 43.1252 35.2234C43.1252 35.1235 43.0434 35.0418 42.9435 35.0418Z" fill="#D49145"/>
<path d="M42.9435 40.5479H40.4522C40.3523 40.5479 40.2706 40.6297 40.2706 40.7296C40.2706 40.8295 40.3523 40.9112 40.4522 40.9112H42.9435C43.0434 40.9112 43.1252 40.8295 43.1252 40.7296C43.1252 40.6297 43.0434 40.5479 42.9435 40.5479Z" fill="#D49145"/>
<path d="M42.9435 46.054H40.4522C40.3523 46.054 40.2706 46.1358 40.2706 46.2357C40.2706 46.3356 40.3523 46.4174 40.4522 46.4174H42.9435C43.0434 46.4174 43.1252 46.3356 43.1252 46.2357C43.1252 46.1358 43.0434 46.054 42.9435 46.054Z" fill="#D49145"/>
</svg>
