<svg width="21" height="21" viewBox="0 0 21 21" fill="none" xmlns="http://www.w3.org/2000/svg">
<path d="M21 3.9375C21 4.98179 20.5852 5.98331 19.8467 6.72173C19.1083 7.46016 18.1068 7.875 17.0625 7.875C16.0182 7.875 15.0167 7.46016 14.2783 6.72173C13.5398 5.98331 13.125 4.98179 13.125 3.9375C13.125 2.89321 13.5398 1.89169 14.2783 1.15327C15.0167 0.414843 16.0182 0 17.0625 0C18.1068 0 19.1083 0.414843 19.8467 1.15327C20.5852 1.89169 21 2.89321 21 3.9375Z" fill="#9E9E9E"/>
<path d="M10.5 2.625H0V21H18.375V10.5H15.75V18.375H2.625V5.25H10.5V2.625Z" fill="#9E9E9E"/>
</svg>
