<svg width="22" height="22" viewBox="0 0 22 22" fill="none" xmlns="http://www.w3.org/2000/svg">
<path d="M21.6386 19.9036L17.4844 15.7616C18.8247 14.054 19.552 11.9454 19.5493 9.77463C19.5493 7.84139 18.976 5.95157 17.9019 4.34414C16.8279 2.73671 15.3013 1.48387 13.5152 0.744053C11.7291 0.00423516 9.76379 -0.189335 7.8677 0.187821C5.9716 0.564977 4.22993 1.49592 2.86293 2.86293C1.49592 4.22993 0.564977 5.9716 0.187821 7.8677C-0.189335 9.76379 0.00423516 11.7291 0.744053 13.5152C1.48387 15.3013 2.73671 16.8279 4.34414 17.9019C5.95157 18.976 7.84139 19.5493 9.77463 19.5493C11.9454 19.552 14.054 18.8247 15.7616 17.4844L19.9036 21.6386C20.0172 21.7531 20.1523 21.844 20.3012 21.906C20.4501 21.9681 20.6098 22 20.7711 22C20.9324 22 21.0921 21.9681 21.241 21.906C21.3899 21.844 21.525 21.7531 21.6386 21.6386C21.7531 21.525 21.844 21.3899 21.906 21.241C21.9681 21.0921 22 20.9324 22 20.7711C22 20.6098 21.9681 20.4501 21.906 20.3012C21.844 20.1523 21.7531 20.0172 21.6386 19.9036ZM2.44366 9.77463C2.44366 8.3247 2.87362 6.90733 3.67915 5.70176C4.48469 4.49619 5.62963 3.55656 6.96919 3.0017C8.30875 2.44683 9.78276 2.30166 11.2048 2.58452C12.6269 2.86739 13.9332 3.5656 14.9584 4.59085C15.9837 5.61611 16.6819 6.92236 16.9647 8.34443C17.2476 9.7665 17.1024 11.2405 16.5476 12.5801C15.9927 13.9196 15.0531 15.0646 13.8475 15.8701C12.6419 16.6756 11.2246 17.1056 9.77463 17.1056C7.83034 17.1056 5.96568 16.3332 4.59085 14.9584C3.21603 13.5836 2.44366 11.7189 2.44366 9.77463Z" fill="#373737"/>
</svg>
